HIERARCHY
ROOT Hips
{
 OFFSET 0.000000 0.000000 0.000000
 CHANNELS 6 Xposition Yposition Zposition Yrotation Xrotation Zrotation
 JOINT Chest
 {
  OFFSET 0.000000 9.585900 0.002600
  CHANNELS 3 Yrotation Xrotation Zrotation
  JOINT Chest2
  {
   OFFSET 0.000000 9.601200 -0.005300
   CHANNELS 3 Yrotation Xrotation Zrotation
   JOINT Chest3
   {
    OFFSET 0.000000 9.561800 0.000000
    CHANNELS 3 Yrotation Xrotation Zrotation
    JOINT Chest4
    {
     OFFSET 0.000000 9.552100 0.000000
     CHANNELS 3 Yrotation Xrotation Zrotation
     JOINT Neck
     {
      OFFSET 0.000000 14.453000 0.000000
      CHANNELS 3 Yrotation Xrotation Zrotation
      JOINT Head
      {
       OFFSET 0.000000 8.936500 -0.011300
       CHANNELS 3 Yrotation Xrotation Zrotation
       End Site
       {
        OFFSET 0.000000 17.073600 -0.006000
       }
      }
     }
     JOINT RightCollar
     {
      OFFSET -2.921100 9.558500 0.000000
      CHANNELS 3 Yrotation Xrotation Zrotation
      JOINT RightShoulder
      {
       OFFSET -13.519700 0.000000 0.000000
       CHANNELS 3 Yrotation Xrotation Zrotation
       JOINT RightElbow
       {
        OFFSET 0.000000 -29.696600 0.000000
        CHANNELS 3 Yrotation Xrotation Zrotation
        JOINT RightWrist
        {
         OFFSET 0.000000 -24.004700 0.000000
         CHANNELS 3 Yrotation Xrotation Zrotation
         End Site
         {
          OFFSET 0.000000 -17.728500 0.000000
         }
        }
       }
      }
     }
     JOINT LeftCollar
     {
      OFFSET 2.921100 9.558500 0.000000
      CHANNELS 3 Yrotation Xrotation Zrotation
      JOINT LeftShoulder
      {
       OFFSET 13.519700 0.000000 0.000000
       CHANNELS 3 Yrotation Xrotation Zrotation
       JOINT LeftElbow
       {
        OFFSET 0.000000 -29.696600 0.000000
        CHANNELS 3 Yrotation Xrotation Zrotation
        JOINT LeftWrist
        {
         OFFSET 0.000000 -24.004700 0.000000
         CHANNELS 3 Yrotation Xrotation Zrotation
         End Site
         {
          OFFSET 0.000000 -17.728500 0.000000
         }
        }
       }
      }
     }
    }
   }
  }
 }
 JOINT RightHip
 {
  OFFSET -7.771700 -0.012900 -0.001300
  CHANNELS 3 Yrotation Xrotation Zrotation
  JOINT RightKnee
  {
   OFFSET 0.000000 -40.869800 0.001200
   CHANNELS 3 Yrotation Xrotation Zrotation
   JOINT RightAnkle
   {
    OFFSET 0.000000 -39.717900 0.002100
    CHANNELS 3 Yrotation Xrotation Zrotation
    JOINT RightToe
    {
     OFFSET 0.000000 -4.965400 11.033500
     CHANNELS 3 Yrotation Xrotation Zrotation
     End Site
     {
      OFFSET 0.000000 -1.423100 5.872300
     }
    }
   }
  }
 }
 JOINT LeftHip
 {
  OFFSET 7.771700 -0.012900 -0.001300
  CHANNELS 3 Yrotation Xrotation Zrotation
  JOINT LeftKnee
  {
   OFFSET 0.000000 -40.869800 0.001200
   CHANNELS 3 Yrotation Xrotation Zrotation
   JOINT LeftAnkle
   {
    OFFSET 0.000000 -39.717900 0.002100
    CHANNELS 3 Yrotation Xrotation Zrotation
    JOINT LeftToe
    {
     OFFSET 0.000000 -4.965400 11.033500
     CHANNELS 3 Yrotation Xrotation Zrotation
     End Site
     {
      OFFSET 0.000000 -1.423100 5.872300
     }
    }
   }
  }
 }
}
MOTION
Frames: 7
Frame Time: 0.008333
0.000000 85.388000 0.000000 0.000000 -5.767877 0.000000 0.000000 11.653817 0.000000 0.000000 -5.885947 0.000000 0.000000 -0.000000 0.000000 0.000000 -0.000000 0.000000 0.000000 12.528835 0.000000 0.000000 0.711642 0.000000 0.000000 -0.000000 0.000000 0.000000 0.000000 -90.000000 0.000000 -2.309062 0.000000 0.000000 2.309062 0.000000 0.000000 -0.000000 0.000000 0.000000 -0.000000 90.000000 0.000000 -2.309062 0.000000 0.000000 2.309062 0.000000 0.000000 8.520406 0.000000 0.000000 1.905762 0.000000 -0.000000 -4.658285 0.000000 0.000000 -0.000000 0.000000 0.000000 8.520406 0.000000 0.000000 1.905762 0.000000 -0.000000 -4.658285 0.000000 0.000000 -0.000000 0.000000
-43.404754 57.481152 19.537351 161.579394 -7.787829 0.534452 1.881251 10.988785 1.182123 0.116459 0.749517 0.026347 0.188806 1.254557 0.045195 1.624139 10.190194 0.493284 1.306746 17.373415 -0.934109 2.742616 -3.495231 -2.174208 2.304646 9.223086 0.749235 -2.840807 -8.775451 -8.853923 178.301788 -79.667210 -153.784760 -2.501207 4.279746 -34.859230 -5.484890 8.786554 -3.310141 11.790547 -8.506730 3.009258 146.069740 -76.751251 -167.656761 -4.985357 10.726546 6.350752 -9.614359 -64.714060 3.782014 -34.615796 72.785179 -36.174047 -2.879463 -7.179533 0.448715 -0.266645 0.675663 -0.169055 0.885637 -66.743744 13.675925 40.612278 63.698072 33.957519 -18.132375 -8.197433 4.256825 -0.186998 -0.927435 -0.071491
-43.400552 57.484135 19.533347 161.571173 -7.766026 0.538570 1.898762 10.999112 1.181084 0.112551 0.733670 0.025925 0.195342 1.271027 0.045586 1.630616 10.192441 0.494784 1.310995 17.362350 -0.938573 2.736330 -3.517594 -2.174516 2.298330 9.223337 0.750689 -2.809047 -8.768689 -8.861264 178.245979 -79.665325 -153.732026 -2.514365 4.300936 -34.831694 -5.496673 8.762640 -3.307342 11.831403 -8.412671 2.992865 146.263541 -76.769239 -167.805462 -4.992869 10.854813 6.579018 -9.631643 -64.729933 3.788831 -34.573697 72.795225 -36.123481 -2.864816 -7.190164 0.440095 -0.273514 0.682390 -0.166389 0.910603 -66.758938 13.661141 40.611943 63.695901 33.955583 -18.115995 -8.196527 4.258586 -0.184536 -0.925134 -0.074964
-43.395950 57.487642 19.528212 161.579065 -7.743727 0.544547 1.896738 11.008202 1.175102 0.111105 0.718871 0.025866 0.207773 1.319866 0.046386 1.640334 10.195129 0.493210 1.303284 17.318808 -0.942057 2.762435 -3.527664 -2.201942 2.290120 9.186225 0.754286 -2.783383 -8.766718 -8.868120 178.206525 -79.669234 -153.694614 -2.516799 4.294246 -34.839511 -5.505692 8.734534 -3.296861 11.835504 -8.395026 2.982306 146.289991 -76.829162 -167.763770 -4.990599 10.965716 6.779697 -9.658473 -64.746696 3.788528 -34.563078 72.808082 -36.093038 -2.870080 -7.211761 0.418774 -0.257628 0.691516 -0.158378 0.920933 -66.772729 13.641351 40.607559 63.689556 33.949432 -18.117684 -8.188270 4.261132 -0.178312 -0.925711 -0.079955
-43.385884 57.491901 19.520399 161.570904 -7.741685 0.530810 1.911394 11.035879 1.190472 0.117659 0.750529 0.026126 0.200977 1.273787 0.046446 1.646917 10.212192 0.492156 1.308427 17.310521 -0.946175 2.767293 -3.545219 -2.210999 2.289319 9.183785 0.762361 -2.715358 -8.727237 -8.889555 178.164533 -79.625504 -153.714442 -2.526666 4.301663 -34.820202 -5.495583 8.740381 -3.297018 11.836606 -8.373036 2.977294 146.286001 -76.888465 -167.698043 -4.981335 11.054534 6.948629 -9.709521 -64.739562 3.830146 -34.576011 72.823007 -36.062878 -2.897320 -7.233090 0.363562 -0.207469 0.693321 -0.134827 0.884725 -66.765882 13.682562 40.613456 63.691530 33.954347 -18.071269 -8.190386 4.268328 -0.218821 -0.927718 -0.095920
-43.379098 57.495776 19.515034 161.567127 -7.716636 0.534390 1.916497 11.040442 1.185966 0.118186 0.750816 0.025997 0.200697 1.259451 0.047416 1.649750 10.212836 0.491221 1.325323 17.340408 -0.958274 2.763372 -3.586081 -2.211868 2.302215 9.196142 0.771117 -2.712493 -8.738696 -8.898801 178.163416 -79.624878 -153.710413 -2.537995 4.305494 -34.797108 -5.483338 8.794097 -3.300507 11.839488 -8.378994 2.962688 146.264746 -76.946547 -167.624951 -4.966889 11.123746 7.087115 -9.736244 -64.758649 3.845442 -34.569014 72.833379 -36.041821 -2.895338 -7.247913 0.357339 -0.195145 0.700093 -0.130590 0.878650 -66.783749 13.685596 40.623535 63.689567 33.960130 -18.051782 -8.179609 4.272827 -0.243447 -0.940274 -0.107132
-43.371622 57.499458 19.510513 161.568906 -7.687262 0.535472 1.915647 11.032797 1.183823 0.118308 0.743812 0.025566 0.202742 1.275146 0.045246 1.652226 10.197990 0.492264 1.329126 17.344499 -0.965192 2.763150 -3.603926 -2.211160 2.319778 9.231331 0.780709 -2.714618 -8.772060 -8.907246 178.189293 -79.636542 -153.705151 -2.541833 4.294244 -34.803634 -5.482991 8.809752 -3.301031 11.852637 -8.346549 2.950450 146.223128 -77.002996 -167.538457 -4.949607 11.177888 7.192077 -9.774413 -64.782045 3.868035 -34.565375 72.843790 -36.024713 -2.888920 -7.263178 0.337966 -0.191343 0.700426 -0.129552 0.866879 -66.805178 13.693390 40.623880 63.682812 33.961649 -18.057290 -8.166322 4.265065 -0.251414 -0.949487 -0.110094
